<svg width="283" height="49" fill="none" xmlns="http://www.w3.org/2000/svg"><path d="m-2 46.889 1.645 2.01 18.023-17.63 16.09 17.574.636-.685.61.74 18.023-17.63 16.09 17.575.635-.685.603.74 18.031-17.63 16.089 17.575.628-.685.611.74 18.023-17.63 16.089 17.575.636-.685.61.74 18.023-17.63 16.09 17.575.636-.685.61.74 18.023-17.63 16.09 17.575.636-.685.61.74 18.023-17.63 16.089 17.575.637-.685.602.74 18.031-17.63 16.089 17.575L283 46.944l-17.735-19.372-18.659 18.242-16.699-18.242-18.66 18.242-16.699-18.242-18.659 18.242-16.7-18.242-18.651 18.242-16.7-18.242-18.659 18.242-16.7-18.242L69.82 45.814l-16.7-18.242-18.658 18.242-16.7-18.242L-2 46.889Z" fill="#FFE500"/><path d="m-2 33.112 1.645 2.001 18.023-17.621 16.09 17.575.636-.695.61.741 18.023-17.621 16.09 17.575.635-.695.603.741 18.031-17.621 16.089 17.575.628-.695.611.741 18.023-17.621 16.089 17.575.636-.695.61.741 18.023-17.621 16.09 17.575.636-.695.61.741 18.023-17.621 16.09 17.575.636-.695.61.741 18.023-17.621 16.089 17.575.637-.695.602.741 18.031-17.621 16.089 17.575L283 33.158l-17.735-19.372-18.659 18.242-16.699-18.242-18.66 18.242-16.699-18.242-18.659 18.242-16.7-18.242-18.651 18.242-16.7-18.242-18.659 18.242-16.7-18.242L69.82 32.028l-16.7-18.242-18.658 18.242-16.7-18.242L-2 33.112Z" fill="#FFE500"/><path d="m-2 19.326 1.645 2.001L17.668 3.706l16.09 17.575.636-.695.61.741L53.027 3.706l16.09 17.575.635-.695.603.741L88.386 3.706l16.089 17.575.628-.695.611.741 18.023-17.621 16.089 17.575.636-.695.61.741 18.023-17.621 16.09 17.575.636-.695.61.741 18.023-17.621 16.09 17.575.636-.695.61.741 18.023-17.621 16.089 17.575.637-.695.602.741 18.031-17.621 16.089 17.575L283 19.372 265.265 0l-18.659 18.242L229.907 0l-18.66 18.242L194.548 0l-18.659 18.242L159.189 0l-18.651 18.242L123.838 0l-18.659 18.242L88.479 0 69.82 18.242 53.12 0 34.462 18.242 17.762 0-2 19.326Z" fill="#FFE500"/></svg>