<svg width="1936" height="32" fill="none" xmlns="http://www.w3.org/2000/svg"><path d="M271.736 20.898 260.395 1.25h22.682l-11.341 19.648Zm0 2.493L285.241 0h-27.01l13.505 23.391Z" fill="#FFE500"/><path d="m271.736 13.915 5.301-9.177h-10.602l5.301 9.177ZM243.322 30.213l11.341-19.647 11.341 19.647h-22.69m-2.164 1.25h27.025L254.67 8.073l-13.505 23.39h-.015Z" fill="#FFE500"/><path d="m254.67 17.541-5.301 9.177h10.595l-5.294-9.177ZM237.289 20.898 225.941 1.25h22.689l-11.341 19.648Zm0 2.493L250.795 0h-27.011l13.505 23.391Z" fill="#FFE500"/><path d="m237.289 13.915 5.294-9.177h-10.595l5.301 9.177ZM208.875 30.213l11.341-19.647 11.341 19.647h-22.689m-2.165 1.25h27.011l-13.506-23.39-13.505 23.39Z" fill="#FFE500"/><path d="m220.216 17.541-5.294 9.177h10.595l-5.301-9.177ZM202.835 20.898 191.494 1.25h22.689l-11.341 19.648m0 2.493L216.34 0h-27.01l13.505 23.391h.007Z" fill="#FFE500"/><path d="m202.835 13.915 5.301-9.177h-10.595l5.294 9.177ZM174.421 30.213l11.341-19.647 11.34 19.647h-22.689m-2.164 1.25h27.011l-13.506-23.39-13.505 23.39Z" fill="#FFE500"/><path d="m185.769 17.541-5.301 9.177h10.595l-5.294-9.177ZM168.388 20.898 157.047 1.25h22.69l-11.341 19.648m0 2.493L181.894 0h-27.011l13.505 23.391h.008Z" fill="#FFE500"/><path d="m168.388 13.915 5.294-9.177h-10.595l5.301 9.177ZM139.974 30.213l11.341-19.647 11.341 19.647h-22.689m-2.165 1.25h27.011l-13.506-23.39-13.505 23.39Z" fill="#FFE500"/><path d="m151.315 17.541-5.294 9.177h10.595l-5.301-9.177ZM133.934 20.898 122.593 1.25h22.689l-11.341 19.648m0 2.493L147.439 0h-27.01l13.505 23.391h.007Z" fill="#FFE500"/><path d="m133.934 13.915 5.301-9.177H128.64l5.294 9.177ZM105.527 30.213l11.341-19.647 11.341 19.647H105.52m-2.165 1.25h27.011L116.86 8.073l-13.505 23.39Z" fill="#FFE500"/><path d="m116.868 17.541-5.301 9.177h10.602l-5.301-9.177ZM99.487 20.898 88.147 1.25h22.689L99.495 20.898m0 2.493L112.993 0H85.982l13.505 23.391h.008Z" fill="#FFE500"/><path d="m99.487 13.915 5.294-9.177H94.186l5.301 9.177ZM71.073 30.213l11.34-19.647 11.342 19.647h-22.69m-2.164 1.25h27.01L82.407 8.073l-13.505 23.39Z" fill="#FFE500"/><path d="m82.421 17.541-5.301 9.177h10.595l-5.294-9.177ZM65.033 20.898 53.693 1.25H76.38l-11.34 19.648m0 2.493L78.537 0h-27.01l13.505 23.391h.007Z" fill="#FFE500"/><path d="m65.033 13.915 5.301-9.177H59.74l5.294 9.177ZM36.626 30.213l11.34-19.647 11.342 19.647h-22.69m-2.164 1.25h27.01L47.96 8.073l-13.505 23.39Z" fill="#FFE500"/><path d="m47.967 17.541-5.294 9.177h10.595l-5.301-9.177ZM30.586 20.898 19.246 1.25h22.689L30.593 20.898m0 2.493L44.092 0H17.08l13.505 23.391h.008Z" fill="#FFE500"/><path d="m30.586 13.915 5.302-9.177H25.292l5.294 9.177ZM2.172 30.213l11.34-19.647 11.342 19.647H2.164M0 31.463h27.01L13.506 8.073 0 31.462Z" fill="#FFE500"/><path d="m13.52 17.541-5.301 9.177h10.595l-5.294-9.177ZM546.863 20.898 535.522 1.25h22.681l-11.34 19.648Zm0 2.493L560.368 0h-27.011l13.506 23.391Z" fill="#FFE500"/><path d="m546.862 13.915 5.302-9.177h-10.603l5.301 9.177ZM518.448 30.213l11.341-19.647 11.341 19.647h-22.689m-2.165 1.25h27.026l-13.506-23.39-13.505 23.39h-.015Z" fill="#FFE500"/><path d="m529.796 17.541-5.301 9.177h10.595l-5.294-9.177ZM512.416 20.898 501.067 1.25h22.69l-11.341 19.648Zm0 2.493L525.921 0H498.91l13.506 23.391Z" fill="#FFE500"/><path d="m512.416 13.915 5.293-9.177h-10.595l5.302 9.177ZM484.001 30.213l11.341-19.647 11.341 19.647h-22.689m-2.164 1.25h27.01l-13.505-23.39-13.505 23.39Z" fill="#FFE500"/><path d="m495.342 17.541-5.294 9.177h10.595l-5.301-9.177ZM477.962 20.898 466.621 1.25h22.689l-11.341 19.648m0 2.493L491.467 0h-27.011l13.506 23.391h.007Z" fill="#FFE500"/><path d="m477.961 13.915 5.302-9.177h-10.595l5.293 9.177ZM449.547 30.213l11.341-19.647 11.341 19.647H449.54m-2.165 1.25h27.011l-13.505-23.39-13.506 23.39Z" fill="#FFE500"/><path d="m460.895 17.541-5.301 9.177h10.595l-5.294-9.177ZM443.515 20.898 432.174 1.25h22.689l-11.341 19.648m0 2.493L457.02 0h-27.011l13.506 23.391h.007Z" fill="#FFE500"/><path d="m443.515 13.915 5.293-9.177h-10.595l5.302 9.177ZM415.1 30.213l11.341-19.647 11.341 19.647h-22.689m-2.164 1.25h27.01l-13.505-23.39-13.505 23.39Z" fill="#FFE500"/><path d="m426.441 17.541-5.294 9.177h10.595l-5.301-9.177ZM409.061 20.898 397.72 1.25h22.689l-11.341 19.648m0 2.493L422.566 0h-27.011l13.506 23.391h.007Z" fill="#FFE500"/><path d="m409.06 13.915 5.302-9.177h-10.595l5.293 9.177ZM380.653 30.213l11.341-19.647 11.341 19.647h-22.689m-2.164 1.25h27.01l-13.505-23.39-13.505 23.39Z" fill="#FFE500"/><path d="m391.994 17.541-5.301 9.177h10.603l-5.302-9.177ZM374.614 20.898 363.273 1.25h22.689l-11.341 19.648m0 2.493L388.119 0h-27.011l13.506 23.391h.007Z" fill="#FFE500"/><path d="m374.614 13.915 5.293-9.177h-10.595l5.302 9.177ZM346.199 30.213l11.341-19.647 11.341 19.647h-22.689m-2.164 1.25h27.01l-13.505-23.39-13.505 23.39Z" fill="#FFE500"/><path d="m357.547 17.541-5.301 9.177h10.595l-5.294-9.177ZM340.159 20.898 328.818 1.25h22.69l-11.341 19.648m0 2.493L353.665 0h-27.011l13.505 23.391h.008Z" fill="#FFE500"/><path d="m340.159 13.915 5.302-9.177h-10.596l5.294 9.177ZM311.752 30.213l11.341-19.647 11.341 19.647h-22.689m-2.164 1.25h27.01l-13.505-23.39-13.505 23.39Z" fill="#FFE500"/><path d="m323.093 17.541-5.294 9.177h10.595l-5.301-9.177ZM305.713 20.898 294.372 1.25h22.689L305.72 20.898m0 2.493L319.218 0h-27.011l13.506 23.391h.007Z" fill="#FFE500"/><path d="m305.713 13.915 5.301-9.177h-10.595l5.294 9.177ZM277.298 30.213l11.341-19.647 11.341 19.647h-22.689m-2.164 1.25h27.01l-13.505-23.39-13.505 23.39Z" fill="#FFE500"/><path d="m288.646 17.541-5.301 9.177h10.595l-5.294-9.177ZM821.989 20.898 810.648 1.25h22.682l-11.341 19.648Zm0 2.493L835.494 0h-27.01l13.505 23.391Z" fill="#FFE500"/><path d="m821.989 13.915 5.301-9.177h-10.602l5.301 9.177ZM793.574 30.213l11.341-19.647 11.341 19.647h-22.689m-2.164 1.25h27.025l-13.505-23.39-13.506 23.39h-.014Z" fill="#FFE500"/><path d="m804.923 17.541-5.302 9.177h10.596l-5.294-9.177ZM787.542 20.898 776.194 1.25h22.689l-11.341 19.648Zm0 2.493L801.047 0h-27.01l13.505 23.391Z" fill="#FFE500"/><path d="m787.542 13.915 5.294-9.177h-10.595l5.301 9.177ZM759.128 30.213l11.341-19.647 11.341 19.647h-22.69m-2.164 1.25h27.011l-13.506-23.39-13.505 23.39Z" fill="#FFE500"/><path d="m770.469 17.541-5.294 9.177h10.595l-5.301-9.177ZM753.088 20.898 741.747 1.25h22.689l-11.341 19.648m0 2.493L766.593 0h-27.011l13.506 23.391h.007Z" fill="#FFE500"/><path d="m753.088 13.915 5.301-9.177h-10.595l5.294 9.177ZM724.673 30.213l11.341-19.647 11.341 19.647h-22.689m-2.164 1.25h27.01l-13.505-23.39-13.505 23.39Z" fill="#FFE500"/><path d="m736.022 17.541-5.302 9.177h10.595l-5.293-9.177ZM718.641 20.898 707.3 1.25h22.689l-11.341 19.648m0 2.493L732.146 0h-27.01l13.505 23.391h.007Z" fill="#FFE500"/><path d="m718.641 13.915 5.294-9.177H713.34l5.301 9.177ZM690.227 30.213l11.34-19.647 11.341 19.647h-22.689m-2.164 1.25h27.01L701.56 8.073l-13.505 23.39Z" fill="#FFE500"/><path d="m701.567 17.541-5.293 9.177h10.595l-5.302-9.177ZM684.187 20.898 672.846 1.25h22.689l-11.341 19.648m0 2.493L697.692 0h-27.01l13.505 23.391h.007Z" fill="#FFE500"/><path d="m684.187 13.915 5.301-9.177h-10.595l5.294 9.177ZM655.78 30.213l11.341-19.647 11.341 19.647h-22.69m-2.164 1.25h27.011l-13.506-23.39-13.505 23.39Z" fill="#FFE500"/><path d="m667.121 17.541-5.302 9.177h10.603l-5.301-9.177ZM649.74 20.898 638.399 1.25h22.689l-11.341 19.648m0 2.493L663.245 0h-27.01l13.505 23.391h.007Z" fill="#FFE500"/><path d="m649.74 13.915 5.294-9.177h-10.595l5.301 9.177ZM621.326 30.213l11.34-19.647 11.341 19.647h-22.689m-2.164 1.25h27.01l-13.505-23.39-13.505 23.39Z" fill="#FFE500"/><path d="m632.674 17.541-5.301 9.177h10.595l-5.294-9.177ZM615.286 20.898 603.945 1.25h22.689l-11.341 19.648m0 2.493L628.791 0H601.78l13.506 23.391h.007Z" fill="#FFE500"/><path d="m615.286 13.915 5.301-9.177h-10.595l5.294 9.177ZM586.879 30.213l11.341-19.647 11.34 19.647h-22.689m-2.164 1.25h27.011l-13.506-23.39-13.505 23.39Z" fill="#FFE500"/><path d="m598.22 17.541-5.294 9.177h10.595l-5.301-9.177ZM580.839 20.898 569.498 1.25h22.689l-11.341 19.648m0 2.493L594.344 0h-27.01l13.505 23.391h.007Z" fill="#FFE500"/><path d="m580.839 13.915 5.301-9.177h-10.595l5.294 9.177ZM552.424 30.213l11.341-19.647 11.341 19.647h-22.689m-2.164 1.25h27.01l-13.505-23.39-13.505 23.39Z" fill="#FFE500"/><path d="m563.773 17.541-5.302 9.177h10.596l-5.294-9.177ZM1097.12 20.898 1085.77 1.25h22.69l-11.34 19.648Zm0 2.493L1110.62 0h-27.01l13.51 23.391Z" fill="#FFE500"/><path d="m1097.12 13.915 5.3-9.177h-10.61l5.31 9.177ZM1068.7 30.213l11.34-19.647 11.34 19.647h-22.69m-2.16 1.25h27.02l-13.5-23.39-13.51 23.39h-.01Z" fill="#FFE500"/><path d="m1080.05 17.541-5.3 9.177h10.59l-5.29-9.177ZM1062.67 20.898 1051.32 1.25h22.69l-11.34 19.648Zm0 2.493L1076.17 0h-27.01l13.51 23.391Z" fill="#FFE500"/><path d="m1062.67 13.915 5.29-9.177h-10.59l5.3 9.177ZM1034.25 30.213l11.35-19.647 11.34 19.647h-22.69m-2.17 1.25h27.01l-13.5-23.39-13.51 23.39Z" fill="#FFE500"/><path d="m1045.6 17.541-5.3 9.177h10.6l-5.3-9.177ZM1028.21 20.898 1016.87 1.25h22.69l-11.34 19.648m0 2.493L1041.72 0h-27.01l13.5 23.391h.01Z" fill="#FFE500"/><path d="m1028.21 13.915 5.31-9.177h-10.6l5.29 9.177ZM999.8 30.213l11.34-19.647 11.34 19.647h-22.688m-2.164 1.25h27.012l-13.51-23.39-13.502 23.39Z" fill="#FFE500"/><path d="m1011.15 17.541-5.3 9.177h10.59l-5.29-9.177ZM993.767 20.898 982.426 1.25h22.694l-11.345 19.648m0 2.493L1007.27 0h-27.008l13.505 23.391h.008Z" fill="#FFE500"/><path d="m993.767 13.915 5.294-9.177h-10.595l5.301 9.177ZM965.353 30.213l11.341-19.647 11.341 19.647h-22.689m-2.165 1.25h27.011l-13.505-23.39-13.506 23.39Z" fill="#FFE500"/><path d="m976.694 17.541-5.294 9.177h10.595l-5.301-9.177ZM959.313 20.898 947.972 1.25h22.69l-11.341 19.648m0 2.493L972.819 0h-27.011l13.505 23.391h.008Z" fill="#FFE500"/><path d="m959.313 13.915 5.302-9.177h-10.596l5.294 9.177ZM930.906 30.213l11.341-19.647 11.341 19.647h-22.689m-2.164 1.25h27.01L942.24 8.073l-13.505 23.39Z" fill="#FFE500"/><path d="m942.247 17.541-5.301 9.177h10.602l-5.301-9.177ZM924.866 20.898 913.525 1.25h22.69l-11.341 19.648m0 2.493L938.372 0h-27.011l13.505 23.391h.008Z" fill="#FFE500"/><path d="m924.866 13.915 5.294-9.177h-10.595l5.301 9.177ZM896.452 30.213l11.341-19.647 11.341 19.647h-22.689m-2.165 1.25h27.011l-13.506-23.39-13.505 23.39Z" fill="#FFE500"/><path d="m907.8 17.541-5.301 9.177h10.595l-5.294-9.177ZM890.412 20.898 879.071 1.25h22.689l-11.34 19.648m0 2.493L903.917 0h-27.01l13.505 23.391h.008Z" fill="#FFE500"/><path d="m890.412 13.915 5.301-9.177h-10.595l5.294 9.177ZM862.005 30.213l11.341-19.647 11.341 19.647h-22.689m-2.165 1.25h27.011l-13.505-23.39-13.506 23.39Z" fill="#FFE500"/><path d="m873.346 17.541-5.294 9.177h10.595l-5.301-9.177ZM855.965 20.898 844.624 1.25h22.69l-11.341 19.648m0 2.493L869.471 0H842.46l13.505 23.391h.008Z" fill="#FFE500"/><path d="m855.965 13.915 5.302-9.177h-10.596l5.294 9.177ZM827.551 30.213l11.341-19.647 11.341 19.647h-22.689m-2.165 1.25h27.011l-13.505-23.39-13.506 23.39Z" fill="#FFE500"/><path d="m838.899 17.541-5.301 9.177h10.595l-5.294-9.177ZM1372.24 20.898 1360.9 1.25h22.68l-11.34 19.648Zm0 2.493L1385.75 0h-27.01l13.5 23.391Z" fill="#FFE500"/><path d="m1372.24 13.915 5.3-9.177h-10.6l5.3 9.177ZM1343.83 30.213l11.34-19.647 11.34 19.647h-22.69m-2.16 1.25h27.02l-13.5-23.39-13.51 23.39h-.01Z" fill="#FFE500"/><path d="m1355.18 17.541-5.31 9.177h10.6l-5.29-9.177ZM1337.8 20.898 1326.45 1.25h22.69l-11.34 19.648Zm0 2.493L1351.3 0h-27.01l13.51 23.391Z" fill="#FFE500"/><path d="m1337.79 13.915 5.3-9.177h-10.6l5.3 9.177ZM1309.38 30.213l11.34-19.647 11.34 19.647h-22.69m-2.16 1.25h27.01l-13.51-23.39-13.5 23.39Z" fill="#FFE500"/><path d="m1320.72 17.541-5.29 9.177h10.59l-5.3-9.177ZM1303.34 20.898 1292 1.25h22.69l-11.34 19.648m0 2.493L1316.85 0h-27.01l13.5 23.391h.01Z" fill="#FFE500"/><path d="m1303.34 13.915 5.3-9.177h-10.59l5.29 9.177ZM1274.93 30.213l11.34-19.647 11.34 19.647h-22.69m-2.17 1.25h27.02l-13.51-23.39-13.51 23.39Z" fill="#FFE500"/><path d="m1286.27 17.541-5.3 9.177h10.6l-5.3-9.177ZM1268.89 20.898 1257.55 1.25h22.69l-11.34 19.648m0 2.493L1282.4 0h-27.01l13.5 23.391h.01Z" fill="#FFE500"/><path d="m1268.89 13.915 5.3-9.177h-10.6l5.3 9.177ZM1240.48 30.213l11.34-19.647 11.34 19.647h-22.69m-2.16 1.25h27.01l-13.51-23.39-13.5 23.39Z" fill="#FFE500"/><path d="m1251.82 17.541-5.29 9.177h10.59l-5.3-9.177ZM1234.44 20.898 1223.1 1.25h22.69l-11.34 19.648m0 2.493L1247.95 0h-27.02l13.51 23.391h.01Z" fill="#FFE500"/><path d="m1234.44 13.915 5.3-9.177h-10.59l5.29 9.177ZM1206.03 30.213l11.34-19.647 11.34 19.647h-22.68m-2.17 1.25h27.01l-13.5-23.39-13.51 23.39Z" fill="#FFE500"/><path d="m1217.37 17.541-5.3 9.177h10.6l-5.3-9.177ZM1199.99 20.898 1188.65 1.25h22.69L1200 20.898m0 2.493L1213.5 0h-27.01l13.5 23.391h.01Z" fill="#FFE500"/><path d="m1199.99 13.915 5.3-9.177h-10.6l5.3 9.177ZM1171.58 30.213l11.34-19.647 11.34 19.647h-22.69m-2.16 1.25h27.01l-13.51-23.39-13.5 23.39Z" fill="#FFE500"/><path d="m1182.93 17.541-5.3 9.177h10.59l-5.29-9.177ZM1165.54 20.898 1154.2 1.25h22.69l-11.34 19.648m0 2.493L1179.04 0h-27.01l13.51 23.391h.01Z" fill="#FFE500"/><path d="m1165.54 13.915 5.3-9.177h-10.6l5.3 9.177ZM1137.13 30.213l11.34-19.647 11.34 19.647h-22.69m-2.16 1.25h27.01l-13.5-23.39-13.51 23.39Z" fill="#FFE500"/><path d="m1148.47 17.541-5.29 9.177h10.59l-5.3-9.177ZM1131.09 20.898 1119.75 1.25h22.69l-11.34 19.648m0 2.493L1144.6 0h-27.01l13.5 23.391h.01Z" fill="#FFE500"/><path d="m1131.09 13.915 5.3-9.177h-10.59l5.29 9.177ZM1102.68 30.213l11.34-19.647 11.34 19.647h-22.69m-2.16 1.25h27.01l-13.51-23.39-13.5 23.39Z" fill="#FFE500"/><path d="m1114.03 17.541-5.31 9.177h10.6l-5.29-9.177ZM1647.37 20.898 1636.03 1.25h22.68l-11.34 19.648Zm0 2.493L1660.87 0h-27.01l13.51 23.391Z" fill="#FFE500"/><path d="m1647.37 13.915 5.3-9.177h-10.6l5.3 9.177ZM1618.95 30.213l11.34-19.647 11.35 19.647h-22.69m-2.17 1.25h27.03l-13.51-23.39-13.5 23.39h-.02Z" fill="#FFE500"/><path d="m1630.3 17.541-5.3 9.177h10.6l-5.3-9.177ZM1612.92 20.898 1601.57 1.25h22.69l-11.34 19.648Zm0 2.493L1626.43 0h-27.01l13.5 23.391Z" fill="#FFE500"/><path d="m1612.92 13.915 5.3-9.177h-10.6l5.3 9.177ZM1584.51 30.213l11.34-19.647 11.34 19.647h-22.69m-2.16 1.25h27.01l-13.51-23.39-13.5 23.39Z" fill="#FFE500"/><path d="m1595.85 17.541-5.3 9.177h10.6l-5.3-9.177ZM1578.47 20.898 1567.13 1.25h22.69l-11.35 19.648m0 2.493L1591.97 0h-27.01l13.51 23.391Z" fill="#FFE500"/><path d="m1578.47 13.915 5.3-9.177h-10.6l5.3 9.177ZM1550.05 30.213l11.34-19.647 11.34 19.647h-22.68m-2.17 1.25h27.01l-13.5-23.39-13.51 23.39Z" fill="#FFE500"/><path d="m1561.4 17.541-5.3 9.177h10.6l-5.3-9.177ZM1544.02 20.898 1532.68 1.25h22.69l-11.34 19.648m0 2.493L1557.53 0h-27.01l13.5 23.391h.01Z" fill="#FFE500"/><path d="m1544.02 13.915 5.29-9.177h-10.59l5.3 9.177ZM1515.61 30.213l11.34-19.647 11.34 19.647h-22.69m-2.17 1.25h27.01l-13.5-23.39-13.51 23.39Z" fill="#FFE500"/><path d="m1526.95 17.541-5.3 9.177h10.6l-5.3-9.177ZM1509.57 20.898 1498.23 1.25h22.68l-11.34 19.648m0 2.493L1523.07 0h-27.01l13.51 23.391Z" fill="#FFE500"/><path d="m1509.57 13.915 5.3-9.177h-10.6l5.3 9.177ZM1481.16 30.213l11.34-19.647 11.34 19.647h-22.69m-2.16 1.25H1506l-13.51-23.39-13.5 23.39Z" fill="#FFE500"/><path d="m1492.5 17.541-5.3 9.177h10.6l-5.3-9.177ZM1475.12 20.898 1463.78 1.25h22.69l-11.34 19.648m0 2.493L1488.62 0h-27.01l13.51 23.391h.01Z" fill="#FFE500"/><path d="m1475.12 13.915 5.29-9.177h-10.59l5.3 9.177ZM1446.7 30.213l11.35-19.647 11.34 19.647h-22.69m-2.17 1.25h27.01l-13.5-23.39-13.51 23.39Z" fill="#FFE500"/><path d="m1458.05 17.541-5.3 9.177h10.6l-5.3-9.177ZM1440.67 20.898 1429.32 1.25h22.69l-11.34 19.648m0 2.493L1454.17 0h-27.01l13.51 23.391Z" fill="#FFE500"/><path d="m1440.67 13.915 5.3-9.177h-10.6l5.3 9.177ZM1412.26 30.213l11.34-19.647 11.34 19.647h-22.69m-2.16 1.25h27.01l-13.51-23.39-13.5 23.39Z" fill="#FFE500"/><path d="m1423.6 17.541-5.29 9.177h10.59l-5.3-9.177ZM1406.22 20.898 1394.88 1.25h22.69l-11.34 19.648m0 2.493L1419.72 0h-27.01l13.51 23.391h.01Z" fill="#FFE500"/><path d="m1406.22 13.915 5.3-9.177h-10.6l5.3 9.177ZM1377.8 30.213l11.34-19.647 11.35 19.647h-22.69m-2.17 1.25h27.01l-13.5-23.39-13.51 23.39Z" fill="#FFE500"/><path d="m1389.15 17.541-5.3 9.177h10.6l-5.3-9.177ZM1922.49 20.898 1911.15 1.25h22.69l-11.35 19.648Zm0 2.493L1936 0h-27.01l13.5 23.391Z" fill="#FFE500"/><path d="m1922.49 13.915 5.31-9.177h-10.61l5.3 9.177ZM1894.08 30.213l11.34-19.647 11.34 19.647h-22.69m-2.16 1.25h27.02l-13.5-23.39-13.51 23.39h-.01Z" fill="#FFE500"/><path d="m1905.43 17.541-5.3 9.177h10.59l-5.29-9.177ZM1888.05 20.898 1876.7 1.25h22.69l-11.34 19.648Zm0 2.493L1901.55 0h-27.01l13.51 23.391Z" fill="#FFE500"/><path d="m1888.05 13.915 5.29-9.177h-10.59l5.3 9.177ZM1859.63 30.213l11.34-19.647 11.35 19.647h-22.69m-2.17 1.25h27.01l-13.5-23.39-13.51 23.39Z" fill="#FFE500"/><path d="m1870.97 17.541-5.29 9.177h10.6l-5.31-9.177ZM1853.59 20.898 1842.25 1.25h22.69l-11.34 19.648m0 2.493L1867.1 0h-27.01l13.5 23.391h.01Z" fill="#FFE500"/><path d="m1853.59 13.915 5.3-9.177h-10.59l5.29 9.177ZM1825.18 30.213l11.34-19.647 11.34 19.647h-22.69m-2.16 1.25h27.01l-13.51-23.39-13.5 23.39Z" fill="#FFE500"/><path d="m1836.53 17.541-5.3 9.177h10.59l-5.29-9.177ZM1819.15 20.898 1807.81 1.25h22.69l-11.35 19.648m0 2.493L1832.65 0h-27.01l13.51 23.391Z" fill="#FFE500"/><path d="m1819.15 13.915 5.29-9.177h-10.59l5.3 9.177ZM1790.73 30.213l11.34-19.647 11.34 19.647h-22.68m-2.17 1.25h27.01l-13.5-23.39-13.51 23.39Z" fill="#FFE500"/><path d="m1802.07 17.541-5.29 9.177h10.59l-5.3-9.177ZM1784.69 20.898 1773.35 1.25h22.69l-11.34 19.648m0 2.493L1798.2 0h-27.01l13.5 23.391h.01Z" fill="#FFE500"/><path d="m1784.69 13.915 5.3-9.177h-10.59l5.29 9.177ZM1756.29 30.213l11.34-19.647 11.34 19.647h-22.69m-2.17 1.25h27.01l-13.5-23.39-13.51 23.39Z" fill="#FFE500"/><path d="m1767.63 17.541-5.3 9.177h10.6l-5.3-9.177ZM1750.25 20.898 1738.91 1.25h22.68l-11.34 19.648m0 2.493L1763.75 0h-27.01l13.51 23.391Z" fill="#FFE500"/><path d="m1750.25 13.915 5.29-9.177h-10.6l5.31 9.177ZM1721.83 30.213l11.34-19.647 11.34 19.647h-22.69m-2.16 1.25h27.01l-13.5-23.39-13.51 23.39Z" fill="#FFE500"/><path d="m1733.18 17.541-5.3 9.177h10.59l-5.29-9.177ZM1715.79 20.898 1704.45 1.25h22.69l-11.34 19.648m0 2.493L1729.3 0h-27.01l13.5 23.391h.01Z" fill="#FFE500"/><path d="m1715.79 13.915 5.3-9.177h-10.59l5.29 9.177ZM1687.38 30.213l11.35-19.647 11.34 19.647h-22.69m-2.17 1.25h27.01l-13.5-23.39-13.51 23.39Z" fill="#FFE500"/><path d="m1698.73 17.541-5.3 9.177h10.6l-5.3-9.177ZM1681.34 20.898 1670 1.25h22.69l-11.34 19.648m0 2.493L1694.85 0h-27.01l13.5 23.391h.01Z" fill="#FFE500"/><path d="m1681.34 13.915 5.31-9.177h-10.6l5.29 9.177ZM1652.93 30.213l11.34-19.647 11.34 19.647h-22.69m-2.16 1.25h27.01l-13.51-23.39-13.5 23.39Z" fill="#FFE500"/><path d="m1664.28 17.541-5.3 9.177h10.59l-5.29-9.177Z" fill="#FFE500"/></svg>