<svg width="208" height="63" fill="none" xmlns="http://www.w3.org/2000/svg"><g clip-path="url('#clip0_40_840')"><path d="M78.373 34.37c-2.255 2.111-5.02 3.165-8.299 3.165-3.278 0-6.044-1.048-8.299-3.144-2.254-2.097-3.382-4.827-3.382-8.194V9.383h5.8v16.556c0 1.798.567 3.272 1.701 4.427 1.135 1.155 2.528 1.733 4.18 1.733 1.652 0 3.04-.578 4.16-1.733 1.12-1.155 1.68-2.63 1.68-4.427V9.383h5.841v16.814c0 3.337-1.128 6.061-3.382 8.17v.003ZM87.218 37.109V9.386h6.422l7.109 10.903 2.016 3.092 1.879 2.88.771 1.183V9.389h5.884v27.723h-6.219l-6.823-10.373-2.409-3.66-2.08-3.163-.666-1.158v18.354h-5.884v-.003ZM114.449 37.109l11.79-27.723h5.901l11.478 27.723h-5.637l-1.806-4.406h-13.814l-1.864 4.406h-6.05.002Zm9.908-9.112h9.889l-2.123-5.176-2.915-7.104c-.957 2.855-1.855 5.253-2.699 7.193L124.354 28l.003-.003ZM147.144 37.109V9.386h5.084l4.104 5.914 5.099 7.35 5.003-7.36 4.16-5.904h5.084v27.723h-5.884V19.655c-.451.912-1.324 2.325-2.618 4.235l-5.786 8.6-5.866-8.639-2.499-3.97v17.228h-5.884.003ZM178.831 37.109 190.62 9.386h5.902L208 37.109h-5.637l-1.806-4.406h-13.814l-1.864 4.406h-6.051.003Zm9.907-9.112h9.89l-2.123-5.176-2.912-7.104c-.957 2.855-1.856 5.253-2.699 7.193L188.738 28v-.003ZM44.469 1.32V45.77c0 1.338-.27 2.638-.8 3.864-.678 1.566-2.089 3.015-4.078 4.193a18.007 18.007 0 0 1-5.483 2.085c-6.9 1.35-9.593 2.351-10.684 3.965l-.538.797-.538-.797c-1.091-1.614-3.787-2.615-10.684-3.965a17.979 17.979 0 0 1-5.483-2.085c-1.99-1.175-3.4-2.627-4.078-4.193a9.633 9.633 0 0 1-.8-3.864V1.32h11.658v2.055h4.096V1.32h11.658v2.055h4.095V1.32H44.47ZM45.766 0H31.513v2.052h-1.5V0H15.758v2.052h-1.5V0H0v45.769c0 1.525.305 3.002.91 4.397.792 1.821 2.386 3.483 4.614 4.8a19.344 19.344 0 0 0 5.89 2.239c6.344 1.244 9.017 2.168 9.86 3.417l.538.797L22.88 63l1.07-1.581.539-.797c.843-1.25 3.516-2.173 9.86-3.417a19.315 19.315 0 0 0 5.89-2.239c2.228-1.318 3.822-2.979 4.614-4.8.605-1.395.91-2.872.91-4.397V0h.003Z" fill="#fff"/><path d="M22.88 12.3H1.949V45.77c0 1.237.253 2.46.744 3.595 1.37 3.156 5.757 5.24 9.087 5.892 6.708 1.312 9.811 2.33 11.1 4.24 1.289-1.91 4.392-2.928 11.1-4.24 3.33-.651 7.717-2.736 9.087-5.892a9.028 9.028 0 0 0 .744-3.595V12.3H22.877h.003Zm16.417 20.72a.907.907 0 0 1-.788.462.904.904 0 0 1-.454-.124l-4.212-2.475-1.661 1.003 6.324 3.69a.937.937 0 0 1 .337 1.262.904.904 0 0 1-1.24.343l-7.21-4.208-1.853 1.123 8.465 4.983c.433.255.581.82.331 1.262a.907.907 0 0 1-.788.462.882.882 0 0 1-.454-.125l-8.44-4.972v15.085c0 .51-.405.924-.908.924a.915.915 0 0 1-.908-.924V34.637l-2.05-1.208v19.648c0 .51-.408.924-.908.924a.915.915 0 0 1-.908-.924V33.503L20.07 34.63V50.79c0 .51-.407.924-.907.924a.917.917 0 0 1-.908-.924V35.703l-8.712 5.15a.875.875 0 0 1-.453.124.91.91 0 0 1-.786-.459.932.932 0 0 1 .329-1.261l12.499-7.385-1.964-1.158L8.194 37.29a.9.9 0 0 1-1.242-.329.933.933 0 0 1 .32-1.265l2.356-1.412-2.862-1.842a.934.934 0 0 1-.283-1.273.896.896 0 0 1 1.251-.287l3.653 2.348 2.234-1.339-5.992-3.716a.933.933 0 0 1-.302-1.27.896.896 0 0 1 1.245-.308l6.82 4.231 1.97-1.178-8.147-4.797a.933.933 0 0 1-.332-1.262.899.899 0 0 1 1.24-.337l11.844 6.976v-2.218l-3.148-1.877a.782.782 0 0 1-.212-.128l-3.528-2.105a.919.919 0 0 1-.248-.148l-3.225-1.925a.938.938 0 0 1-.326-1.264.9.9 0 0 1 1.242-.329l1.97 1.176v-2.831c0-.51.406-.924.907-.924.5 0 .907.414.907.924v3.914l1.94 1.158v-6.446c0-.51.408-.924.908-.924s.907.414.907.924v7.53l1.903 1.134v-9.221c0-.51.407-.924.907-.924s.908.415.908.924v13.651l1.745-1.03V17.069c0-.513.407-.924.907-.924s.908.411.908.924v2.25l2.65-1.492a.897.897 0 0 1 1.233.36.933.933 0 0 1-.355 1.256L27.34 21.43v2.257l5.864-3.438a.897.897 0 0 1 1.24.34.931.931 0 0 1-.335 1.262l-6.772 3.968v2.38l8.307-4.909a.899.899 0 0 1 1.24.335.932.932 0 0 1-.33 1.261l-9.569 5.656a.873.873 0 0 1-.22.13L24.74 31.87l1.987 1.17 10.489-6.353a.898.898 0 0 1 1.245.323.932.932 0 0 1-.317 1.265l-2.528 1.53 3.33 1.958c.434.255.582.82.332 1.261l.018-.002ZM34.186 7.015l-.052-.148c-.125.355-.248.66-.364.918l-.433.971h1.6l-.428-.977c-.05-.112-.105-.243-.172-.394a6.304 6.304 0 0 1-.151-.37ZM18.907 6.97c-.166-.165-.387-.248-.664-.248h-.954v1.741h.949c.279 0 .503-.083.669-.249a.845.845 0 0 0 .25-.621.845.845 0 0 0-.25-.622Z" fill="#fff"/><path d="M33.459 1.984v2.052h-5.402V1.984H17.702v2.052h-5.401V1.984H1.949v9.849h41.865V1.984H33.459ZM6.076 9.974H5.42L3.859 6.13h.687l.902 2.191.297.859c.125-.388.224-.672.296-.859l.902-2.191h.692L6.076 9.973Zm7.49-.007H10.56V6.13h2.926v.592h-2.252v.936h2.124v.586h-2.124v1.131h2.333v.592Zm5.52 0-.65-.923a9.353 9.353 0 0 1-.603.011h-.544v.912h-.675V6.13h1.583c.535 0 .945.136 1.233.411.288.276.43.625.43 1.052 0 .263-.066.512-.203.74-.137.228-.326.4-.57.515l.826 1.12h-.826Zm4.585 0h-.675V6.13h.675v3.837Zm6.306-3.245h-1.326v3.245h-.675V6.722H26.65V6.13h3.327v.592Zm5.48 3.245-.288-.663h-2.08l-.296.663h-.687l1.7-3.837h.639l1.699 3.837h-.687Zm5.99-.242c-.303.201-.661.302-1.071.302-.617 0-1.12-.184-1.507-.551l.262-.521c.364.299.782.45 1.25.45.219 0 .408-.05.57-.148.164-.098.245-.231.245-.397a.37.37 0 0 0-.128-.281.69.69 0 0 0-.267-.154c-.09-.027-.219-.063-.384-.11L40 8.197a2.541 2.541 0 0 1-.373-.145 1.335 1.335 0 0 1-.325-.21.93.93 0 0 1-.29-.687c-.001-.341.133-.605.4-.797.268-.193.59-.287.966-.287.491 0 .94.139 1.338.414l-.262.527a1.95 1.95 0 0 0-1.076-.32c-.096 0-.195.012-.291.039a.634.634 0 0 0-.268.148.35.35 0 0 0-.122.27c0 .139.064.242.19.313.124.071.325.14.601.208l.524.171c.151.05.297.119.442.208a.892.892 0 0 1 .329.34.962.962 0 0 1 .113.471c0 .376-.151.663-.454.865h.003Z" fill="#fff"/><path d="M65.95 45.738h5.087v1.226h-3.683v1.347h3.49v1.217h-3.49v1.605h3.822v1.226H65.95v-6.621ZM73.83 49.037l-2.229-3.3h1.606l1.445 2.32 1.536-2.32h1.545l-2.237 3.3 2.327 3.32h-1.626l-1.545-2.349-1.585 2.348h-1.556l2.318-3.32ZM78.175 49.037c0-1.88 1.425-3.403 3.432-3.403.893 0 1.696.308 2.278.838l-.864.96a1.925 1.925 0 0 0-1.335-.5c-1.184 0-2.048.938-2.048 2.105 0 1.166.843 2.135 1.995 2.135.602 0 1.155-.234 1.556-.684l.873 1c-.622.614-1.466.98-2.458.98-2.007 0-3.432-1.521-3.432-3.431h.003ZM84.85 45.738h5.088v1.226h-3.683v1.347h3.49v1.217h-3.49v1.605h3.822v1.226H84.85v-6.621ZM90.95 45.738h1.405v5.392h3.764v1.226H90.95v-6.618ZM97.073 45.738h5.087v1.226h-3.682v1.347h3.49v1.217h-3.49v1.605h3.822v1.226h-5.227v-6.621Zm2.016-2.073h1.323l1.123 1.614h-.983l-.803-.95-.794.95h-.995l1.123-1.614h.005ZM103.175 45.738h1.344l2.237 3.148c.361.5.774 1.214.774 1.214v-4.362h1.405v6.618h-1.356l-2.167-3.023c-.43-.592-.832-1.297-.832-1.297v4.32h-1.405v-6.618ZM109.99 49.037c0-1.88 1.426-3.403 3.433-3.403.893 0 1.696.308 2.277.838l-.864.96a1.925 1.925 0 0 0-1.335-.5c-1.184 0-2.047.938-2.047 2.105 0 1.166.843 2.135 1.995 2.135.602 0 1.155-.234 1.556-.684l.873 1c-.623.614-1.466.98-2.458.98-2.007 0-3.432-1.521-3.432-3.431h.002ZM116.666 45.738h1.405v6.618h-1.405v-6.618ZM121.651 45.738h1.385l2.83 6.618h-1.425l-.442-1.051h-3.302l-.442 1.051h-1.434l2.83-6.618Zm1.906 4.454-.754-1.89c-.2-.5-.451-1.163-.462-1.184-.009.02-.262.684-.463 1.184l-.753 1.89h2.432ZM128.819 45.738h2.789c1.905 0 2.909 1.143 2.909 2.553 0 1.409-1.004 2.552-2.921 2.552h-1.375v1.51h-1.405v-6.618l.003.003Zm2.85 3.882c.832 0 1.376-.592 1.376-1.326 0-.735-.541-1.327-1.364-1.327h-1.455v2.656h1.446l-.003-.003ZM135.302 49.049c0-1.89 1.434-3.412 3.441-3.412 2.007 0 3.441 1.522 3.441 3.412 0 1.889-1.434 3.423-3.441 3.423-2.007 0-3.441-1.522-3.441-3.423Zm5.419 0c0-1.176-.832-2.115-1.966-2.115-1.135 0-1.987.939-1.987 2.115 0 1.175.844 2.126 1.987 2.126 1.143 0 1.966-.939 1.966-2.126ZM143.24 45.738h2.789c1.917 0 2.921 1.143 2.921 2.564a2.38 2.38 0 0 1-1.233 2.106l1.355 1.951h-1.614l-1.004-1.552c-.192.03-.361.05-.553.05h-1.253v1.502h-1.405v-6.618l-.003-.003Zm2.83 3.891c.823 0 1.396-.604 1.396-1.327 0-.722-.573-1.347-1.384-1.347h-1.434v2.677h1.425l-.003-.003ZM152.173 45.738h1.344l2.236 3.148c.361.5.774 1.214.774 1.214v-4.362h1.405v6.618h-1.355l-2.167-3.023c-.431-.592-.832-1.297-.832-1.297v4.32h-1.405v-6.618ZM161.507 45.738h1.384l2.831 6.618h-1.426l-.442-1.051h-3.301l-.442 1.051h-1.434l2.83-6.618Zm1.905 4.454-.753-1.89c-.201-.5-.451-1.163-.463-1.184-.008.02-.261.684-.462 1.184l-.754 1.89h2.432ZM167.438 46.964h-2.208v-1.226h5.82v1.226h-2.207v5.392h-1.405v-5.392ZM171.856 49.724V45.74h1.405v3.912c0 .992.553 1.513 1.405 1.513s1.405-.521 1.405-1.513V45.74h1.405v3.983c0 1.747-1.143 2.748-2.81 2.748s-2.81-1.001-2.81-2.748ZM178.709 45.738h2.789c1.917 0 2.921 1.143 2.921 2.564a2.38 2.38 0 0 1-1.233 2.106l1.355 1.951h-1.614l-1.004-1.552c-.192.03-.361.05-.553.05h-1.253v1.502h-1.405v-6.618l-.003-.003Zm2.83 3.891c.823 0 1.393-.604 1.393-1.327 0-.722-.573-1.347-1.384-1.347h-1.434v2.677h1.425v-.003ZM185.434 45.738h5.087v1.226h-3.682v1.347h3.49v1.217h-3.49v1.605h3.822v1.226h-5.227v-6.621ZM191.196 51.296l2.95-3.657c.34-.43.602-.675.602-.675h-3.392v-1.226h5.187v1.072l-2.839 3.515c-.352.438-.693.805-.693.805h3.622v1.226h-5.44v-1.063l.003.003ZM199.928 45.738h1.385l2.83 6.618h-1.425l-.442-1.051h-3.302l-.442 1.051h-1.434l2.83-6.618Zm1.906 4.454-.754-1.89c-.201-.5-.451-1.163-.462-1.184-.009.02-.262.684-.463 1.184l-.753 1.89h2.432Z" fill="#DAAE49"/></g><defs><clipPath id="clip0_40_840"><path fill="#fff" d="M0 0h208v63H0z"/></clipPath></defs></svg>